<svg width="28" height="28" viewBox="0 0 28 28" fill="none" xmlns="http://www.w3.org/2000/svg">
<path d="M9.68959 6.21845C9.46106 6.46517 9.33268 6.79975 9.33268 7.14861C9.33268 7.49747 9.46106 7.83205 9.68959 8.07877L15.7236 14.5912L9.68959 21.1036C9.46754 21.3518 9.34467 21.6841 9.34745 22.029C9.35022 22.374 9.47843 22.704 9.70444 22.9479C9.93045 23.1918 10.2362 23.3302 10.5558 23.3332C10.8754 23.3362 11.1833 23.2036 11.4132 22.9639L18.3091 15.5214C18.5376 15.2746 18.666 14.9401 18.666 14.5912C18.666 14.2423 18.5376 13.9078 18.3091 13.661L11.4132 6.21845C11.1847 5.97181 10.8747 5.83325 10.5514 5.83325C10.2282 5.83325 9.91818 5.97181 9.68959 6.21845Z" fill="black"/>
</svg>
